<svg xmlns="http://www.w3.org/2000/svg" viewBox="0 0 24 24" fill="none" width="48" height="48">
  <!-- Outer recycling loops representing Waste flow -->
  <path d="M 5 8 L 2.5 11.5 L 6 13" stroke="#16a34a" stroke-width="2.2" stroke-linecap="round" stroke-linejoin="round" />
  <path d="M 2.5 11.5 C 5.5 6.5, 9.5 4, 13.5 4" stroke="#16a34a" stroke-width="2.2" stroke-linecap="round" />
  <path d="M 19 16 L 21.5 12.5 L 18 11" stroke="#16a34a" stroke-width="2.2" stroke-linecap="round" stroke-linejoin="round" />
  <path d="M 21.5 12.5 C 18.5 17.5, 14.5 20, 10.5 20" stroke="#16a34a" stroke-width="2.2" stroke-linecap="round" />
  
  <!-- Central grid network representing telemetry nodes -->
  <path d="M 8 9 L 12 12 L 16 9" stroke="#16a34a" stroke-width="2" stroke-linecap="round" />
  <path d="M 12 12 L 12 17" stroke="#16a34a" stroke-width="2" stroke-linecap="round" />
  <path d="M 8 9 L 16 9 L 12 17 L 8 9" stroke="#16a34a" stroke-width="1" stroke-dasharray="2 2" />
  
  <!-- Network connection nodes -->
  <circle cx="8" cy="9" r="2.2" fill="#16a34a" stroke="white" stroke-width="0.8" />
  <circle cx="16" cy="9" r="2.2" fill="#16a34a" stroke="white" stroke-width="0.8" />
  <circle cx="12" cy="12" r="2.2" fill="#16a34a" stroke="white" stroke-width="0.8" />
  <circle cx="12" cy="17" r="2.2" fill="#16a34a" stroke="white" stroke-width="0.8" />
</svg>